<?xml version="1.0" encoding="UTF-8" standalone="no"?>
<svg
   xmlns:dc="http://purl.org/dc/elements/1.1/"
   xmlns:cc="http://creativecommons.org/ns#"
   xmlns:rdf="http://www.w3.org/1999/02/22-rdf-syntax-ns#"
   xmlns:svg="http://www.w3.org/2000/svg"
   xmlns="http://www.w3.org/2000/svg"
   xmlns:sodipodi="http://sodipodi.sourceforge.net/DTD/sodipodi-0.dtd"
   xmlns:inkscape="http://www.inkscape.org/namespaces/inkscape"
   version="1.1"
   id="Capa_1"
   x="0px"
   y="0px"
   viewBox="0 0 24 24"
   xml:space="preserve"
   sodipodi:docname="sun.svg"
   width="24"
   height="24"
   inkscape:version="1.0.1 (3bc2e813f5, 2020-09-07)"><metadata
   id="metadata57"><rdf:RDF><cc:Work
       rdf:about=""><dc:format>image/svg+xml</dc:format><dc:type
         rdf:resource="http://purl.org/dc/dcmitype/StillImage" /><dc:title /></cc:Work></rdf:RDF></metadata><defs
   id="defs55" /><sodipodi:namedview
   pagecolor="#ffffff"
   bordercolor="#666666"
   borderopacity="1"
   objecttolerance="10"
   gridtolerance="10"
   guidetolerance="10"
   inkscape:pageopacity="0"
   inkscape:pageshadow="2"
   inkscape:window-width="1920"
   inkscape:window-height="1017"
   id="namedview53"
   showgrid="false"
   inkscape:zoom="3.8802643"
   inkscape:cx="103.814"
   inkscape:cy="72.888272"
   inkscape:window-x="-8"
   inkscape:window-y="-8"
   inkscape:window-maximized="1"
   inkscape:current-layer="Capa_1"
   inkscape:document-rotation="0" />
























<g
   id="g907"
   transform="scale(0.11559135)"
   style="fill:#808080;fill-opacity:1"><circle
     cx="103.814"
     cy="103.814"
     r="45.868"
     id="circle2"
     style="fill:#808080;fill-opacity:1" /><path
     d="m 103.814,157.183 c -29.427,0 -53.368,-23.941 -53.368,-53.368 0,-29.427 23.941,-53.368 53.368,-53.368 29.427,0 53.368,23.941 53.368,53.368 0,29.427 -23.941,53.368 -53.368,53.368 z m 0,-91.737 c -21.156,0 -38.368,17.212 -38.368,38.368 0,21.156 17.212,38.368 38.368,38.368 21.156,0 38.368,-17.212 38.368,-38.368 0,-21.156 -17.212,-38.368 -38.368,-38.368 z"
     id="path4"
     style="fill:#808080;fill-opacity:1" /><path
     d="m 103.814,39.385 c -4.142,0 -7.5,-3.358 -7.5,-7.5 V 7.5 c 0,-4.142 3.358,-7.5 7.5,-7.5 4.142,0 7.5,3.358 7.5,7.5 v 24.385 c 0,4.142 -3.358,7.5 -7.5,7.5 z"
     id="path6"
     style="fill:#808080;fill-opacity:1" /><path
     d="m 103.814,207.628 c -4.142,0 -7.5,-3.358 -7.5,-7.5 v -24.385 c 0,-4.142 3.358,-7.5 7.5,-7.5 4.142,0 7.5,3.358 7.5,7.5 v 24.385 c 0,4.143 -3.358,7.5 -7.5,7.5 z"
     id="path8"
     style="fill:#808080;fill-opacity:1" /><path
     d="m 200.128,111.314 h -24.385 c -4.142,0 -7.5,-3.358 -7.5,-7.5 0,-4.142 3.358,-7.5 7.5,-7.5 h 24.385 c 4.142,0 7.5,3.358 7.5,7.5 0,4.142 -3.357,7.5 -7.5,7.5 z"
     id="path10"
     style="fill:#808080;fill-opacity:1" /><path
     d="M 31.885,111.314 H 7.5 c -4.142,0 -7.5,-3.358 -7.5,-7.5 0,-4.142 3.358,-7.5 7.5,-7.5 h 24.385 c 4.142,0 7.5,3.358 7.5,7.5 0,4.142 -3.358,7.5 -7.5,7.5 z"
     id="path12"
     style="fill:#808080;fill-opacity:1" /><path
     d="m 154.676,60.452 c -1.919,0 -3.839,-0.732 -5.303,-2.197 -2.929,-2.929 -2.929,-7.678 0,-10.606 l 17.243,-17.242 c 2.929,-2.929 7.678,-2.93 10.606,0 2.929,2.929 2.929,7.678 0,10.606 l -17.243,17.242 c -1.464,1.465 -3.384,2.197 -5.303,2.197 z"
     id="path14"
     style="fill:#808080;fill-opacity:1" /><path
     d="m 35.709,179.419 c -1.919,0 -3.839,-0.732 -5.303,-2.197 -2.929,-2.929 -2.929,-7.678 0,-10.606 l 17.243,-17.243 c 2.929,-2.929 7.678,-2.929 10.606,0 2.929,2.929 2.929,7.678 0,10.606 l -17.243,17.243 c -1.464,1.465 -3.383,2.197 -5.303,2.197 z"
     id="path16"
     style="fill:#808080;fill-opacity:1" /><path
     d="m 171.918,179.419 c -1.919,0 -3.839,-0.732 -5.303,-2.197 l -17.243,-17.243 c -2.929,-2.929 -2.929,-7.678 0,-10.606 2.929,-2.929 7.678,-2.929 10.606,0 l 17.243,17.243 c 2.929,2.929 2.929,7.678 0,10.606 -1.464,1.465 -3.383,2.197 -5.303,2.197 z"
     id="path18"
     style="fill:#808080;fill-opacity:1" /><path
     d="m 52.952,60.452 c -1.919,0 -3.839,-0.732 -5.303,-2.197 L 30.406,41.013 c -2.929,-2.929 -2.929,-7.677 0,-10.606 2.929,-2.929 7.678,-2.93 10.606,0 l 17.243,17.242 c 2.929,2.929 2.929,7.677 0,10.606 -1.464,1.465 -3.383,2.197 -5.303,2.197 z"
     id="path20"
     style="fill:#808080;fill-opacity:1" /><g
     id="g22"
     style="fill:#808080;fill-opacity:1">
</g><g
     id="g24"
     style="fill:#808080;fill-opacity:1">
</g><g
     id="g26"
     style="fill:#808080;fill-opacity:1">
</g><g
     id="g28"
     style="fill:#808080;fill-opacity:1">
</g><g
     id="g30"
     style="fill:#808080;fill-opacity:1">
</g><g
     id="g32"
     style="fill:#808080;fill-opacity:1">
</g><g
     id="g34"
     style="fill:#808080;fill-opacity:1">
</g><g
     id="g36"
     style="fill:#808080;fill-opacity:1">
</g><g
     id="g38"
     style="fill:#808080;fill-opacity:1">
</g><g
     id="g40"
     style="fill:#808080;fill-opacity:1">
</g><g
     id="g42"
     style="fill:#808080;fill-opacity:1">
</g><g
     id="g44"
     style="fill:#808080;fill-opacity:1">
</g><g
     id="g46"
     style="fill:#808080;fill-opacity:1">
</g><g
     id="g48"
     style="fill:#808080;fill-opacity:1">
</g><g
     id="g50"
     style="fill:#808080;fill-opacity:1">
</g></g>
</svg>
